                <svg xmlns="http://www.w3.org/2000/svg" width="32" height="32" viewBox="0 0 32 32" fill="none">
  <path d="M14 16C14 16.4244 14.1686 16.8313 14.4686 17.1314C14.7687 17.4314 15.1757 17.6 15.6 17.6C16.0243 17.6 16.4313 17.4314 16.7314 17.1314C17.0314 16.8313 17.2 16.4244 17.2 16C17.2 15.5757 17.0314 15.1687 16.7314 14.8686C16.4313 14.5686 16.0243 14.4 15.6 14.4C15.1757 14.4 14.7687 14.5686 14.4686 14.8686C14.1686 15.1687 14 15.5757 14 16Z" fill="#888888"/>
  <path d="M14 22.4C14 22.8244 14.1686 23.2313 14.4686 23.5314C14.7687 23.8315 15.1757 24 15.6 24C16.0243 24 16.4313 23.8315 16.7314 23.5314C17.0314 23.2313 17.2 22.8244 17.2 22.4C17.2 21.9757 17.0314 21.5687 16.7314 21.2687C16.4313 20.9686 16.0243 20.8 15.6 20.8C15.1757 20.8 14.7687 20.9686 14.4686 21.2687C14.1686 21.5687 14 21.9757 14 22.4Z" fill="#888888"/>
  <path d="M14 9.6C14 10.0243 14.1686 10.4313 14.4686 10.7314C14.7687 11.0314 15.1757 11.2 15.6 11.2C16.0243 11.2 16.4313 11.0314 16.7314 10.7314C17.0314 10.4313 17.2 10.0243 17.2 9.6C17.2 9.17565 17.0314 8.76869 16.7314 8.46863C16.4313 8.16857 16.0243 8 15.6 8C15.1757 8 14.7687 8.16857 14.4686 8.46863C14.1686 8.76869 14 9.17565 14 9.6Z" fill="#888888"/>
</svg>